<svg xmlns="http://www.w3.org/2000/svg" viewBox="0 0 143.032 143.031">
  <title>Fichier 1</title>
  <g id="Calque_2" data-name="Calque 2">
    <g id="board">
      <g>
        <g>
          <g>
            <circle cx="50.846" cy="61.851" r="13.706" style="fill: #141114"/>
            <circle cx="91.56" cy="61.851" r="13.707" style="fill: #141114"/>
            <g>
              <path d="M71.516,142.031a70.3,70.3,0,0,0,51.17-22.025c-3.768-7.391-11.025-10.4-21.5-10.763-.442-.024-.886-.038-1.333-.038H42.489q-.415,0-.825.017c-.17.008-.339.013-.507.022-5.977.2-10.906,1.273-14.739,3.524a20.771,20.771,0,0,0-6.234,7.068A70.3,70.3,0,0,0,71.516,142.031Z" style="fill: #141114"/>
              <path d="M99.856,109.205H42.489q-.415,0-.825.017c-.17.008-.339.013-.507.022a49.574,49.574,0,0,0-4.965.411v22.882a70.5,70.5,0,0,0,69.347.748V109.571q-2.073-.25-4.35-.328C100.747,109.22,100.3,109.205,99.856,109.205Z" style="fill: #232224"/>
              <path d="M60.708,141.206a71.079,71.079,0,0,0,21.334.04L92.5,109.664H50.426Z" style="fill: #141114"/>
              <path d="M54.422,109.205" style="fill: #516b85"/>
              <path d="M57.657,80.608v28.9l6.767,6.718a9.772,9.772,0,0,0,13.793-.024l6.692-6.693v-28.9Z" style="fill: #19171a"/>
              <path d="M57.631,101.686c3.572,2.143,8.335,3.078,13.584,3.131l-.2,0h.658l-.2,0c5.18-.053,9.885-.963,13.442-3.049V91.313H57.631Z" style="fill: #141114"/>
              <path d="M71.445,21.1c.091,0,.181-.008.272-.008h-.88c.091,0,.181.007.272.008-14.944.144-26.958,5.625-26.958,20.646V80.294c0,15.022,12.014,20.5,26.958,20.648-.091,0-.181.007-.272.007h.88c-.091,0-.181-.007-.272-.007C86.389,100.8,98.4,95.315,98.4,80.294V41.747C98.4,26.727,86.389,21.245,71.445,21.1Z" style="fill: #19171a"/>
              <path d="M64.769,90.378l-4.317,4.316a41.428,41.428,0,0,0,10.8,1.395c-.082,0-.162,0-.243,0h.785c-.081,0-.161,0-.242,0a41.182,41.182,0,0,0,10.988-1.45l-4.42-4.42L95.583,72.752V44.774c0-13.072-10.712-17.842-24.033-17.968.081,0,.162-.007.242-.007h-.785c.082,0,.162.006.243.007-13.322.125-24.034,4.9-24.034,17.968V72.825Z" style="fill: #d12333"/>
              <path d="M83.087,59.126h3.834a4.832,4.832,0,0,1,4.832,4.832v2.13a6.481,6.481,0,0,1-6.481,6.481h-.513a6.641,6.641,0,0,1-6.641-6.641V64.095a4.969,4.969,0,0,1,4.969-4.969Z" style="fill: #232224"/>
              <path d="M57.36,59.126h.512a6.481,6.481,0,0,1,6.481,6.481v2.128a4.833,4.833,0,0,1-4.833,4.833H55.688a4.97,4.97,0,0,1-4.97-4.97V65.768A6.642,6.642,0,0,1,57.36,59.126Z" transform="translate(115.071 131.695) rotate(180)" style="fill: #232224"/>
              <polygon points="47.216 57.912 47.216 65.027 50.773 61.469 47.216 57.912" style="fill: #232224"/>
              <g>
                <polygon points="95.583 65.365 95.583 57.574 91.688 61.469 95.583 65.365" style="fill: #232224"/>
                <g>
                  <path d="M50.773,53.8v7.671l6.685,6.685L64.1,61.51,57.636,54.94l1.081,1.08L63.834,50.9a2.388,2.388,0,0,0,0-3.377l-5.266-5.264a2.39,2.39,0,0,1-.7-1.689v-11.5a17.491,17.491,0,0,0-7.2,5.031L54.1,37.523a2.387,2.387,0,0,1,.7,1.689v2.634a2.387,2.387,0,0,0,.7,1.688l3.991,3.991a2.388,2.388,0,0,1,0,3.377l-1.233,1.234a2.389,2.389,0,0,1-3.391-.013h0A2.388,2.388,0,0,0,50.773,53.8Z" style="fill: #232224"/>
                  <path d="M88.365,37.523l3.6-3.6a17.79,17.79,0,0,0-7.375-4.979V40.573a2.39,2.39,0,0,1-.7,1.689l-5.265,5.264a2.388,2.388,0,0,0,0,3.377l5.117,5.117,1.071-1.07L78.358,61.51,85,68.154l6.686-6.685V53.8a2.388,2.388,0,0,0-4.09-1.674h0a2.389,2.389,0,0,1-3.391.013L82.974,50.9a2.388,2.388,0,0,1,0-3.377l3.992-3.991a2.385,2.385,0,0,0,.7-1.688V39.212A2.385,2.385,0,0,1,88.365,37.523Z" style="fill: #232224"/>
                </g>
                <path d="M71.49,26.806c.081,0,.162-.007.242-.007h-.785c.082,0,.161.006.243.007a48.66,48.66,0,0,0-5.751.38V40.511a2.579,2.579,0,0,0,.727,1.8l3.044,3.145a2.582,2.582,0,0,0,3.662.049l3.256-3.186a2.58,2.58,0,0,0,.776-1.844V27.145A49.186,49.186,0,0,0,71.49,26.806Z" style="fill: #232224"/>
              </g>
              <path d="M66.853,73.382l.108.107,3.35,3.35a1.264,1.264,0,0,0,1.785,0l3.751-3.75Z" style="fill: #19171a"/>
              <path d="M68.939,96.012q1.187.065,2.407.077c-.082,0-.162,0-.243,0h.785c-.081,0-.161,0-.242,0,.592-.007,1.177-.024,1.759-.049V90.407a2.233,2.233,0,0,0-2.233-2.232h0a2.232,2.232,0,0,0-2.233,2.232Z" style="fill: #232224"/>
              <path d="M47.216,78.122c0,9.734,5.944,14.862,14.479,16.9l3.838-3.837a1.283,1.283,0,0,0,.374-.9V82.219l4.263-.886-4.506-4.505a1.278,1.278,0,0,0-2.041.322l-2.948,5.767a1.277,1.277,0,0,1-2.04.322l-2.87-2.871a1.275,1.275,0,0,1,0-1.806l2.767-2.769a1.276,1.276,0,0,0,0-1.806l-.366-.366a1.279,1.279,0,0,0-1.807,0l-2.768,2.769a1.278,1.278,0,0,1-1.807,0l-4.568-4.567Z" style="fill: #232224"/>
              <path d="M95.583,78.122c0,9.734-5.943,14.862-14.48,16.9l-3.837-3.837a1.281,1.281,0,0,1-.374-.9V82.219l-4.262-.886,4.5-4.505a1.278,1.278,0,0,1,2.042.322l2.947,5.767a1.278,1.278,0,0,0,2.042.322l2.869-2.871a1.275,1.275,0,0,0,0-1.806l-2.767-2.769a1.277,1.277,0,0,1,0-1.806l.366-.366a1.279,1.279,0,0,1,1.807,0l2.768,2.769a1.279,1.279,0,0,0,1.808,0l4.567-4.567Z" style="fill: #232224"/>
            </g>
            <path d="M68.939,66.052c.792.043,1.593-2.237,2.407-2.228-.082,0-.162.006-.243.006h.785c-.081,0-.161-.006-.242-.006.592-.006,1.177,2.28,1.759,2.256V58.143a2.233,2.233,0,0,0-2.233-2.232h0a2.233,2.233,0,0,0-2.233,2.232Z" style="fill: #232224"/>
            <path d="M75.982,72.195c0,1.942-2.106,3.515-4.706,3.515s-4.706-1.573-4.706-3.515,2.107-10.427,4.706-10.427S75.982,70.255,75.982,72.195Z" style="fill: #a71c3e"/>
            <circle cx="71.303" cy="71.3" r="2.561" style="fill: #ba2a53"/>
            <path d="M71.125,71.5,67.387,68a21.894,21.894,0,0,0-.8,3.911c0,.127,0,.268,0,.417.1,1.876,2.159,3.377,4.7,3.377,2.6,0,4.706-1.573,4.706-3.515a19.449,19.449,0,0,0-.826-4.229Z" style="fill: #232224"/>
            <path d="M84.759,55.284h.513a6.481,6.481,0,0,1,6.481,6.481v2.129a4.833,4.833,0,0,1-4.833,4.833H83.087a4.969,4.969,0,0,1-4.969-4.969V61.925a6.641,6.641,0,0,1,6.641-6.641Z" style="fill: #fff"/>
            <path d="M84.936,66.758h0a2.312,2.312,0,0,1-2.3-2.3V59.366a2.311,2.311,0,0,1,2.3-2.305h0a2.312,2.312,0,0,1,2.3,2.305v5.087A2.312,2.312,0,0,1,84.936,66.758Z" style="fill: #9c7c45"/>
            <path d="M55.688,55.284H59.52a4.833,4.833,0,0,1,4.833,4.833v2.13a6.48,6.48,0,0,1-6.48,6.48H57.36a6.642,6.642,0,0,1-6.642-6.642V60.254A4.97,4.97,0,0,1,55.688,55.284Z" transform="translate(115.071 124.012) rotate(180)" style="fill: #fff"/>
            <path d="M57.536,66.758h0a2.311,2.311,0,0,0,2.3-2.3V59.366a2.311,2.311,0,0,0-2.3-2.305h0a2.311,2.311,0,0,0-2.306,2.305v5.087A2.312,2.312,0,0,0,57.536,66.758Z" style="fill: #9c7c45"/>
            <path d="M78.958,81.032a1.008,1.008,0,0,1-1.008,1.009H64.275a1.007,1.007,0,0,1-1.008-1.009h0a1.008,1.008,0,0,1,1.008-1.008H77.949a1.008,1.008,0,0,1,1.008,1.008Z" style="fill: #19171a"/>
            <path d="M73.863,71.3a2.546,2.546,0,0,0-.615-1.663l-.064.057a3.023,3.023,0,0,1-3.915.056,2.559,2.559,0,1,0,4.595,1.55Z" style="fill: #2f2d30"/>
            <path d="M71.574,52.572h-.806a2.157,2.157,0,0,1-2.157-2.157h0a2.158,2.158,0,0,1,2.157-2.158h.806a2.158,2.158,0,0,1,2.158,2.158h0A2.158,2.158,0,0,1,71.574,52.572Z" style="fill: #232224"/>
            <path d="M74.19,31.474a2.934,2.934,0,1,1-5.868,0,29.642,29.642,0,0,1,1.845-6,1.165,1.165,0,0,1,2.177,0A29.592,29.592,0,0,1,74.19,31.474Z" style="fill: #9c7c45"/>
            <path d="M57.1,31.708a2.934,2.934,0,1,1-5.868,0,29.668,29.668,0,0,1,1.845-6,1.165,1.165,0,0,1,2.178,0A29.62,29.62,0,0,1,57.1,31.708Z" style="fill: #9c7c45"/>
            <path d="M91.282,31.708a2.934,2.934,0,1,1-5.868,0,29.646,29.646,0,0,1,1.845-6,1.165,1.165,0,0,1,2.178,0A29.6,29.6,0,0,1,91.282,31.708Z" style="fill: #9c7c45"/>
            <g>
              <path d="M37,109.551a32.236,32.236,0,0,0-6.5,1.4v-.008c-.083.027-.162.059-.244.086q-.294.1-.585.213c-.2.074-.4.155-.6.234-.177.071-.354.144-.528.219-.227.1-.449.205-.67.311-.137.066-.275.129-.41.2q-.532.27-1.038.564c-.192.131-.383.264-.57.4q-.247.182-.488.377l-.058.045a22.181,22.181,0,0,0-5.116,6.248A70.581,70.581,0,0,0,46.629,137.5Z" style="fill: #19171a"/>
              <path d="M122.69,120a17.721,17.721,0,0,0-3.443-4.715v0c-.021-.02-.044-.039-.065-.061-.173-.166-.35-.329-.53-.487l-.116-.1q-.64-.555-1.338-1.047l-.133-.09q-.284-.2-.577-.384l-.169-.107c-.219-.135-.442-.268-.669-.4l-.06-.035q-.378-.211-.772-.408c-.049-.026-.1-.049-.149-.074-.21-.1-.422-.2-.638-.3-.072-.032-.143-.063-.214-.1q-.33-.145-.669-.277l-.149-.062q-.418-.163-.849-.315l-.142-.046c-.239-.083-.481-.159-.726-.235-.084-.026-.166-.052-.25-.076-.23-.067-.462-.133-.7-.2-.071-.019-.142-.04-.214-.058-.306-.08-.615-.156-.93-.228l-.086-.018c-.284-.064-.571-.123-.862-.182l-.27-.051c-.246-.047-.494-.09-.746-.131-.086-.016-.17-.03-.258-.043l-.163-.029v0c-.644-.1-1.3-.188-1.979-.259l-9.591,28.437A70.551,70.551,0,0,0,122.69,120Z" style="fill: #19171a"/>
            </g>
          </g>
        </g>
      </g>
    </g>
  </g>
</svg>
